<?xml version="1.0" encoding="UTF-8"?>
<!DOCTYPE svg PUBLIC "-//W3C//DTD SVG 1.1//EN" "http://www.w3.org/Graphics/SVG/1.1/DTD/svg11.dtd">
<!-- Creator: CorelDRAW -->
<svg xmlns="http://www.w3.org/2000/svg" xml:space="preserve" width="6.82666in" height="6.82666in" style="shape-rendering:geometricPrecision; text-rendering:geometricPrecision; image-rendering:optimizeQuality; fill-rule:evenodd; clip-rule:evenodd"
viewBox="0 0 6.82666 6.82666"
 xmlns:xlink="http://www.w3.org/1999/xlink">
 <defs>
  <style type="text/css">
   <![CDATA[
    .fil3 {fill:none}
    .fil0 {fill:#424242}
    .fil2 {fill:#FFFFFE}
    .fil1 {fill:#FFFFFE;fill-rule:nonzero}
   ]]>
  </style>
 </defs>
 <rect class="fil0" width="6.82666" height="6.82666"/>
 <g id="Layer_x0020_1">
  <metadata id="CorelCorpID_0Corel-Layer"/>
  <g id="_288758488">
   <path id="_288758560" class="fil1" d="M1.46893 3.62148l0.539594 2.26631c0.00980709,0.0487874 0.0529016,0.0855394 0.104575,0.0855394l2.59881 0c0.0489528,0.000807087 0.0936181,-0.0323701 0.105425,-0.0819646l-0.103768 -0.0247047 0.103752 0.0245827 0.540094 -2.2684c-0.0213937,0.00918504 -0.0430394,0.0176929 -0.0649331,0.0248031 -0.0380512,0.0123543 -0.0779567,0.0213819 -0.116756,0.0312323 -0.104531,0.0265394 -0.212846,0.0374055 -0.320555,0.0374055 -0.165457,0 -0.330736,-0.0290157 -0.485394,-0.0881378 -0.106031,-0.0405354 -0.206827,-0.0953189 -0.297421,-0.163772 -0.083378,0.0291732 -0.168807,0.0524764 -0.255374,0.0700394 -0.13278,0.0269409 -0.268157,0.0405906 -0.403646,0.0405906 -0.135484,0 -0.270858,-0.0136496 -0.403634,-0.0405906 -0.0865709,-0.0175669 -0.172,-0.040874 -0.255382,-0.0700472 -0.0905984,0.0684567 -0.191394,0.12324 -0.297429,0.16378 -0.154654,0.059126 -0.319937,0.0881378 -0.485394,0.0881378 -0.191831,0 -0.336748,-0.0264606 -0.502563,-0.0948071zm1.07763 0.379075c-0.00505906,-0.0586811 0.0384055,-0.110358 0.0970866,-0.115417 0.0586811,-0.00505906 0.110358,0.0384055 0.115417,0.0970866l0.118311 1.35231c0.00505906,0.0586811 -0.0384055,0.110358 -0.0970866,0.115417 -0.0586811,0.00505906 -0.110358,-0.0384055 -0.115417,-0.0970866l-0.118311 -1.35231zm0.760102 -0.011748c0,-0.0589094 0.0477598,-0.106669 0.106669,-0.106669 0.0589094,0 0.106669,0.0477598 0.106669,0.106669l0 1.35747c0,0.0589094 -0.0477598,0.106669 -0.106669,0.106669 -0.0589094,0 -0.106669,-0.0477598 -0.106669,-0.106669l0 -1.35747zm0.760937 -0.00658268c0.00505906,-0.0586811 0.0567362,-0.102146 0.115417,-0.0970866 0.0586811,0.00505906 0.102146,0.0567362 0.0970866,0.115417l-0.118311 1.35231c-0.00505906,0.0586811 -0.0567362,0.102146 -0.115417,0.0970866 -0.0586811,-0.00505906 -0.102146,-0.0567362 -0.0970866,-0.115417l0.118311 -1.35231z"/>
   <path id="_288758464" class="fil2" d="M1.97149 3.60962c0.159591,0 0.311244,-0.0290906 0.447303,-0.0811063 0.118594,-0.0453425 0.225559,-0.10837 0.315902,-0.185035 0.0937402,0.0363228 0.192854,0.0654291 0.296209,0.0864016 0.123787,0.0251142 0.251949,0.0384606 0.382425,0.0384606 0.13048,0 0.258642,-0.0133425 0.382437,-0.0384606 0.103354,-0.0209685 0.202461,-0.0500669 0.296197,-0.0863937 0.0903386,0.0766575 0.197307,0.139693 0.315898,0.185028 0.136059,0.0520157 0.287713,0.0811063 0.447303,0.0811063 0.101992,0 0.200756,-0.0119094 0.294307,-0.034126 0.113803,-0.0307756 0.11563,-0.0276339 0.239268,-0.0842362 0.0774606,-0.0371024 0.148752,-0.0820079 0.21222,-0.13339 0.198154,-0.160409 0.32072,-0.383728 0.32072,-0.631929 0,-0.245047 -0.119669,-0.465961 -0.31372,-0.626106 -0.169705,-0.140051 -0.397461,-0.233173 -0.650807,-0.25311 -0.0830748,-0.277398 -0.273437,-0.519476 -0.532957,-0.695244 -0.274799,-0.186122 -0.627406,-0.298157 -1.01087,-0.298157 -0.383457,0 -0.736067,0.112035 -1.01087,0.298157 -0.259512,0.175772 -0.449878,0.417843 -0.532957,0.695244 -0.25335,0.019937 -0.481106,0.113055 -0.650811,0.25311 -0.194051,0.160146 -0.31372,0.381059 -0.31372,0.626106 0,0.248201 0.122567,0.47152 0.32072,0.631929 0.0634724,0.0513819 0.13476,0.0962913 0.212228,0.133394 0.186406,0.0852323 0.325476,0.118358 0.533567,0.118358zm-0.201047 -0.938862c0,-0.0467638 0.0189646,-0.0891102 0.0496142,-0.11976 0.0306457,-0.0306457 0.0729961,-0.0496102 0.11976,-0.0496102 0.0467638,0 0.0891142,0.0189646 0.11976,0.0496102 0.0306496,0.0306496 0.0496142,0.0729961 0.0496142,0.11976 0,0.0467638 -0.0189646,0.0891102 -0.0496142,0.11976 -0.0306496,0.0306496 -0.0729961,0.0496142 -0.11976,0.0496142 -0.0467638,0 -0.0891142,-0.0189646 -0.11976,-0.0496142 -0.0306496,-0.0306496 -0.0496142,-0.0729961 -0.0496142,-0.11976zm1.17187 -0.081185c0,-0.0467638 0.0189646,-0.0891142 0.0496142,-0.11976 0.0306457,-0.0306496 0.0729961,-0.0496142 0.11976,-0.0496142 0.0467638,0 0.0891102,0.0189646 0.11976,0.0496142 0.0306496,0.0306457 0.0496142,0.0729961 0.0496142,0.11976 0,0.0467638 -0.0189646,0.0891102 -0.0496142,0.119756 -0.0306496,0.0306496 -0.0729961,0.0496142 -0.11976,0.0496142 -0.0467638,0 -0.0891142,-0.0189646 -0.11976,-0.0496102 -0.0306496,-0.0306496 -0.0496142,-0.0729961 -0.0496142,-0.11976zm1.09532 -0.406122c-0.0343268,0.0343189 -0.0817441,0.0555551 -0.134114,0.0555551 -0.0523661,0 -0.0997913,-0.0212362 -0.13411,-0.0555551 -0.0343228,-0.0343228 -0.0555591,-0.0817441 -0.0555591,-0.13411 0,-0.052374 0.0212362,-0.0997913 0.0555591,-0.13411 0.0343189,-0.0343228 0.0817441,-0.0555591 0.13411,-0.0555591 0.0523701,0 0.0997913,0.0212362 0.134114,0.0555591 0.0343228,0.0343189 0.0555591,0.0817362 0.0555591,0.13411 0,0.0523661 -0.0212362,0.0997874 -0.0555591,0.13411zm0.497374 0.209512c0.0306457,-0.0306457 0.0729961,-0.0496102 0.11976,-0.0496102 0.0467638,0 0.0891102,0.0189646 0.11976,0.0496142 0.0306496,0.0306457 0.0496142,0.0729882 0.0496142,0.119756 0,0.0467638 -0.0189646,0.0891102 -0.0496142,0.11976 -0.0306457,0.0306496 -0.0729961,0.0496142 -0.11976,0.0496142 -0.0467638,0 -0.0891142,-0.0189646 -0.11976,-0.0496142 -0.0306496,-0.0306457 -0.0496142,-0.0729961 -0.0496142,-0.11976 0,-0.0467638 0.0189646,-0.0891102 0.0496142,-0.11976zm-1.74004 -0.554122c-0.038,-0.038 -0.0615039,-0.0904921 -0.0615039,-0.148465 0,-0.0579724 0.0235039,-0.110461 0.0615039,-0.148461 0.0379921,-0.0379921 0.0904921,-0.0615 0.148465,-0.0615 0.0579724,0 0.110469,0.0235079 0.148461,0.0615 0.038,0.038 0.0615039,0.0904882 0.0615039,0.148461 0,0.0579724 -0.0235079,0.110469 -0.0615039,0.148461 -0.0379921,0.0379961 -0.0904882,0.0615039 -0.148461,0.0615039 -0.0579724,0 -0.110472,-0.0235079 -0.148465,-0.0615z"/>
  </g>
 </g>
 <rect class="fil3" width="6.82666" height="6.82666"/>
</svg>
