<svg xmlns="http://www.w3.org/2000/svg" version="1.1" xmlns:xlink="http://www.w3.org/1999/xlink" xmlns:svgjs="http://svgjs.dev/svgjs" width="2000" height="1250" viewBox="0 0 2000 1250"><g transform="matrix(1,0,0,1,0,0)"><svg viewBox="0 0 512 320" data-background-color="#ffffff" preserveAspectRatio="xMidYMid meet" height="1250" width="2000" xmlns="http://www.w3.org/2000/svg" xmlns:xlink="http://www.w3.org/1999/xlink"><defs></defs><g id="tight-bounds" transform="matrix(1,0,0,1,0,0)"><svg viewBox="0 0 512 320" height="320" width="512"><g><svg></svg></g><g><svg viewBox="0 0 512 320" height="320" width="512"><g><path d="M96 160c0-88.366 71.634-160 160-160 88.366 0 160 71.634 160 160 0 88.366-71.634 160-160 160-88.366 0-160-71.634-160-160zM256 308.977c82.278 0 148.977-66.699 148.977-148.977 0-82.278-66.699-148.977-148.977-148.977-82.278 0-148.977 66.699-148.977 148.977 0 82.278 66.699 148.977 148.977 148.977z" fill="#ee3e38" data-fill-palette-color="tertiary"></path></g><g transform="matrix(1,0,0,1,176.63146817151664,80)"><svg viewBox="0 0 158.73706365696674 160" height="160" width="158.73706365696674"><g><svg viewBox="0 0 158.73706365696674 160" height="160" width="158.73706365696674"><g><svg viewBox="0 0 256 258.0367751322098" height="160" width="158.73706365696674"><g transform="matrix(1,0,0,1,0,159.47707895371468)"><svg viewBox="0 0 256 98.55969617849513" height="98.55969617849513" width="256"><g><svg viewBox="0 0 256 98.55969617849513" height="98.55969617849513" width="256"><g><svg viewBox="0 0 256 98.55969617849513" height="98.55969617849513" width="256"><g transform="matrix(1,0,0,1,0,0)"><svg width="256" viewBox="4.300000190734863 -39.11000061035156 102.83999633789062 39.60000228881836" height="98.55969617849513" data-palette-color="#ee3e38"><path d="M4.3 0L4.3-39.11 8.94-39.11 8.94 0 4.3 0ZM28.02 0.49L28.02 0.49Q25.14 0.49 22.9-0.54 20.65-1.56 19.1-3.3 17.55-5.03 16.73-7.34 15.92-9.64 15.92-12.21L15.92-12.21Q15.92-15.14 16.95-17.71 17.99-20.29 19.83-22.22 21.68-24.15 24.22-25.26 26.76-26.37 29.73-26.37L29.73-26.37Q32.64-26.37 34.91-25.33 37.18-24.29 38.73-22.53 40.28-20.78 41.09-18.47 41.89-16.16 41.89-13.62L41.89-13.62Q41.89-10.67 40.84-8.09 39.79-5.52 37.94-3.61 36.08-1.71 33.54-0.61 31 0.49 28.02 0.49ZM29.05-3.22L29.05-3.22Q30.83-3.22 32.29-3.94 33.74-4.66 34.78-5.91 35.81-7.15 36.39-8.85 36.96-10.55 36.96-12.5L36.96-12.5Q36.96-14.43 36.4-16.25 35.84-18.07 34.78-19.49 33.71-20.92 32.18-21.79 30.64-22.66 28.71-22.66L28.71-22.66Q26.93-22.66 25.47-21.94 24.02-21.22 22.98-19.96 21.95-18.7 21.37-16.99 20.8-15.28 20.8-13.33L20.8-13.33Q20.8-11.4 21.36-9.58 21.92-7.76 22.98-6.35 24.05-4.93 25.57-4.08 27.1-3.22 29.05-3.22ZM66.99-4.83L66.99-2.2Q65.47-1.03 63.39-0.27 61.3 0.49 58.83 0.49L58.83 0.49Q56.2 0.49 54.06-0.43 51.92-1.34 50.41-2.98 48.9-4.61 48.08-6.9 47.26-9.18 47.26-11.89L47.26-11.89Q47.26-15.04 48.33-17.7 49.41-20.36 51.28-22.29 53.14-24.22 55.68-25.29 58.22-26.37 61.13-26.37L61.13-26.37Q61.81-26.37 62.6-26.31 63.4-26.25 64.18-26.1 64.96-25.95 65.69-25.74 66.43-25.54 66.99-25.24L66.99-25.24 66.01-21.19 65.47-20.95Q64.99-21.31 64.36-21.63 63.74-21.95 63.04-22.17 62.35-22.39 61.6-22.52 60.86-22.66 60.15-22.66L60.15-22.66Q58.52-22.66 57.06-22.01 55.61-21.36 54.51-20.13 53.41-18.9 52.78-17.1 52.14-15.31 52.14-13.01L52.14-13.01Q52.14-10.67 52.81-8.89 53.49-7.1 54.66-5.88 55.83-4.66 57.44-4.04 59.05-3.42 60.93-3.42L60.93-3.42Q62.06-3.42 63.64-3.7 65.23-3.98 66.99-4.83L66.99-4.83ZM88.42-3.86L88.42-3.86Q87.81-3.34 86.94-2.6 86.08-1.86 84.99-1.17 83.9-0.49 82.62 0 81.34 0.49 79.9 0.49L79.9 0.49Q78.61 0.49 77.37 0.04 76.14-0.42 75.19-1.31 74.24-2.2 73.66-3.52 73.09-4.83 73.09-6.54L73.09-6.54Q73.09-7.59 73.34-8.67 73.6-9.74 74.21-10.73 74.82-11.72 75.81-12.59 76.8-13.45 78.25-14.1 79.7-14.75 81.68-15.11 83.66-15.48 86.22-15.48L86.22-15.48 88.42-15.48 88.42-17.72Q88.42-18.85 88.03-19.75 87.64-20.65 86.94-21.3 86.25-21.95 85.28-22.3 84.32-22.66 83.15-22.66L83.15-22.66Q82.27-22.66 81.28-22.46 80.29-22.27 79.3-21.9 78.31-21.53 77.41-21.04 76.51-20.56 75.82-19.97L75.82-19.97 75.38-20.21 74.41-23.78Q75.82-24.56 77.14-25.06 78.46-25.56 79.67-25.85 80.88-26.15 81.97-26.26 83.07-26.37 84.07-26.37L84.07-26.37Q88.64-26.37 90.85-24.48 93.06-22.58 93.06-18.8L93.06-18.8 93.06-6.05Q93.06-5.74 93.11-5.29 93.16-4.83 93.34-4.42 93.52-4 93.88-3.71 94.23-3.42 94.84-3.42L94.84-3.42Q95.18-3.42 95.74-3.53 96.31-3.64 96.87-3.91L96.87-3.91 96.87-1.32Q95.7-0.51 94.51-0.01 93.33 0.49 92.23 0.49L92.23 0.49Q91.23 0.49 90.58 0.09 89.93-0.32 89.51-0.95 89.08-1.59 88.84-2.36 88.59-3.13 88.42-3.86ZM88.42-6.98L88.42-12.65 86.56-12.65Q83.71-12.65 82.01-12.24 80.31-11.84 79.42-11.17 78.53-10.5 78.25-9.62 77.97-8.74 77.97-7.79L77.97-7.79Q77.97-6.76 78.26-5.96 78.56-5.15 79.08-4.58 79.61-4 80.34-3.71 81.07-3.42 81.93-3.42L81.93-3.42Q82.59-3.42 83.28-3.58 83.98-3.74 84.77-4.14 85.56-4.54 86.45-5.22 87.35-5.91 88.42-6.98L88.42-6.98ZM102.5 0L102.5-39.11 107.14-39.11 107.14 0 102.5 0Z" opacity="1" transform="matrix(1,0,0,1,0,0)" fill="#ee3e38" class="undefined-text-0" data-fill-palette-color="primary" id="text-0"></path></svg></g></svg></g></svg></g></svg></g><g transform="matrix(1,0,0,1,59.895249940659866,0)"><svg viewBox="0 0 136.20950011868027 136.20950011868027" height="136.20950011868027" width="136.20950011868027"><g><svg xmlns="http://www.w3.org/2000/svg" data-name="Layer 1" viewBox="0 0 128 128" x="0" y="0" height="136.20950011868027" width="136.20950011868027" class="icon-icon-0" data-fill-palette-color="accent" id="icon-0"><path d="M26.083 8H11.75a2 2 0 0 0 0 4H26.083a2 2 0 0 0 0-4Z" fill="#ec3c30" data-fill-palette-color="accent"></path><path d="M13.886 109h37.066a42.81 42.81 0 0 1-1.852-4H13.886a2 2 0 0 0 0 4Z" fill="#ec3c30" data-fill-palette-color="accent"></path><path d="M13.886 99H47.186q-0.471-1.967-0.758-4H13.886a2 2 0 0 0 0 4Z" fill="#ec3c30" data-fill-palette-color="accent"></path><path d="M11.886 87a2 2 0 0 0 2 2H46c0-1.349 0.07-2.682 0.193-4H13.886A2 2 0 0 0 11.886 87Z" fill="#ec3c30" data-fill-palette-color="accent"></path><path d="M82.5 46.491V26a2 2 0 0 0-2-2h-65a2 2 0 0 0-2 2V76a2 2 0 0 0 2 2H47.432q0.541-2.041 1.273-4H17.5V28h61V47.302C79.811 46.972 81.144 46.698 82.5 46.491Z" fill="#ec3c30" data-fill-palette-color="accent"></path><path d="M2 128H70.919a43.015 43.015 0 0 1-6.852-4H4V20H92V46.116q2.027 0.141 4 0.463V7.75A7.759 7.759 0 0 0 88.25 0H7.75A7.759 7.759 0 0 0 0 7.75V126A2 2 0 0 0 2 128ZM4 7.75A3.754 3.754 0 0 1 7.75 4h80.5A3.754 3.754 0 0 1 92 7.75V16H4Z" fill="#ec3c30" data-fill-palette-color="accent"></path><path d="M89 128A39 39 0 1 0 50 89 39.044 39.044 0 0 0 89 128Zm0-74A35 35 0 1 1 54 89 35.04 35.04 0 0 1 89 54Z" fill="#ec3c30" data-fill-palette-color="accent"></path><path d="M87.528 117.314a2 2 0 0 0 1.402 0.574h0.14a2 2 0 0 0 1.402-0.574c0.762-0.748 18.691-18.485 21.42-32.201a19.135 19.135 0 0 0-4.292-16.055 23.809 23.809 0 0 0-37.2 0 19.135 19.135 0 0 0-4.292 16.055C68.837 98.829 86.767 116.566 87.528 117.314ZM73.492 71.596a19.81 19.81 0 0 1 31.016 0 15.199 15.199 0 0 1 3.46 12.736C105.885 94.807 93.181 108.743 89 113.102 84.818 108.745 72.117 94.816 70.032 84.332A15.199 15.199 0 0 1 73.492 71.596Z" fill="#ec3c30" data-fill-palette-color="accent"></path><path d="M89 93.576A11.015 11.015 0 1 0 77.984 82.561 11.028 11.028 0 0 0 89 93.576ZM89 75.546a7.015 7.015 0 1 1-7.016 7.015A7.023 7.023 0 0 1 89 75.546Z" fill="#ec3c30" data-fill-palette-color="accent"></path></svg></g></svg></g><g></g></svg></g></svg></g></svg></g></svg></g></svg><rect width="512" height="320" fill="none" stroke="none" visibility="hidden"></rect></g></svg></g></svg>